<svg xmlns="http://www.w3.org/2000/svg" width="960" height="194" viewBox="0 0 960 194">
  <g id="Group_97" data-name="Group 97" transform="translate(-201 -2807)">
    <g id="Group_76" data-name="Group 76" transform="translate(4.484 -20)">
      <g id="Group_96" data-name="Group 96">
        <text id="Lorem_ipsum_dolor_sit_amet_consectetur_adipiscing_elit_Aenean_euismod_bibendum." data-name="Lorem ipsum dolor sit amet,
consectetur adipiscing elit Aenean
euismod bibendum." transform="translate(700.516 2977)" fill="#86878b" font-size="14" font-family="Montserrat-Regular, Montserrat"><tspan x="-98.91" y="0">Lorem ipsum dolor sit amet,</tspan><tspan x="-121.436" y="20">consectetur adipiscing elit Aenean</tspan><tspan x="-71.379" y="40">euismod bibendum.</tspan></text>
        <text id="Well_Crafted" data-name="Well Crafted" transform="translate(639 2931)" fill="#333" font-size="20" font-family="Montserrat-Regular, Montserrat"><tspan x="0" y="0">Well Crafted</tspan></text>
        <g id="Group_73" data-name="Group 73" transform="translate(267)">
          <path id="Path_76" data-name="Path 76" d="M20.3,37.711a11.426,11.426,0,0,0-7.64,2.965,9.181,9.181,0,0,0-2.373,3.389,9.181,9.181,0,0,0-2.373-3.389,11.426,11.426,0,0,0-7.64-2.965A.272.272,0,0,0,0,37.991a9.893,9.893,0,0,0,3.171,7.12A9.483,9.483,0,0,0,10.289,48a9.482,9.482,0,0,0,7.118-2.89,9.892,9.892,0,0,0,3.171-7.12A.272.272,0,0,0,20.3,37.711ZM10.288,41.663a9.829,9.829,0,0,1,1.575-1.8,10.692,10.692,0,0,1,2.153-1.614,11.785,11.785,0,0,0-3.456-6.153.429.429,0,0,0-.541,0,11.785,11.785,0,0,0-3.456,6.148,10.5,10.5,0,0,1,2.116,1.586A10.1,10.1,0,0,1,10.288,41.663Z" transform="translate(416 2812.005)" fill="#e27866"/>
          <g id="Ellipse_9" data-name="Ellipse 9" transform="translate(401 2827)" fill="none" stroke="#e27866" stroke-width="1">
            <circle cx="25" cy="25" r="25" stroke="none"/>
            <circle cx="25" cy="25" r="24.5" fill="none"/>
          </g>
        </g>
      </g>
    </g>
    <g id="Group_75" data-name="Group 75" transform="translate(-40.516 -20)">
      <text id="Proin_gravida_dolor_sit_amet_lacus_accumsan_et_viverra." data-name="Proin gravida  dolor sit amet lacus
accumsan et viverra." transform="translate(1082.516 2977)" fill="#86878b" font-size="14" font-family="Montserrat-Regular, Montserrat"><tspan x="-118.86" y="0" xml:space="preserve">Proin gravida  dolor sit amet lacus</tspan><tspan x="-71.834" y="20">accumsan et viverra.</tspan></text>
      <text id="Easy_to_Customize" data-name="Easy to Customize" transform="translate(1083 2931)" fill="#333" font-size="20" font-family="Montserrat-Regular, Montserrat"><tspan x="-91.23" y="0">Easy to Customize</tspan></text>
      <g id="Group_72" data-name="Group 72" transform="translate(568 -5)">
        <g id="Ellipse_10" data-name="Ellipse 10" transform="translate(500 2832)" fill="none" stroke="#e27866" stroke-width="1">
          <circle cx="25" cy="25" r="25" stroke="none"/>
          <circle cx="25" cy="25" r="24.5" fill="none"/>
        </g>
        <path id="Path_78" data-name="Path 78" d="M18.99,40.051s.307,1.5.376,1.818H18.017c.133-.36.646-1.757.646-1.757s.133-.368.214-.6l.113.541Zm4.278-6.112v14.22A1.94,1.94,0,0,1,21.329,50.1H1.939A1.94,1.94,0,0,1,0,48.159V33.939A1.94,1.94,0,0,1,1.939,32h19.39A1.94,1.94,0,0,1,23.268,33.939ZM6.16,44.087l2.553-6.27H7L5.409,42.1l-.174-.869L4.67,38.346a.676.676,0,0,0-.735-.529H1.321l-.028.125a6.41,6.41,0,0,1,1.7.691l1.446,5.454Zm3.813.008,1.018-6.278H9.368L8.354,44.095Zm5.651-2.052c.008-.715-.428-1.26-1.361-1.709-.57-.287-.917-.481-.917-.776.008-.267.295-.541.933-.541a2.784,2.784,0,0,1,1.208.238l.145.069.222-1.357A4.034,4.034,0,0,0,14.4,37.7c-1.6,0-2.731.856-2.739,2.076-.012.9.808,1.4,1.422,1.7s.84.509.84.78c-.008.42-.509.614-.974.614a3.236,3.236,0,0,1-1.523-.335l-.214-.1-.226,1.41a4.957,4.957,0,0,0,1.81.335c1.7,0,2.816-.84,2.828-2.141Zm5.7,2.052-1.309-6.278H18.764a.8.8,0,0,0-.848.521L15.5,44.095h1.7s.279-.776.339-.941h2.084c.048.222.194.941.194.941Z" transform="translate(513 2816)" fill="#e27866"/>
      </g>
    </g>
    <g id="Group_77" data-name="Group 77" transform="translate(25.484 -25)">
      <text id="Lorem_ipsum_dolor_sit_amet_consectetur_adipiscing_elit._Aenean_euismod_ibendum_laoreet." data-name="Lorem ipsum dolor sit amet, consectetur
adipiscing  elit. Aenean euismod
ibendum laoreet." transform="translate(318.516 2982)" fill="#86878b" font-size="14" font-family="Montserrat-Regular, Montserrat"><tspan x="-142.681" y="0">Lorem ipsum dolor sit amet, consectetur</tspan><tspan x="-113.708" y="20" xml:space="preserve">adipiscing  elit. Aenean euismod</tspan><tspan x="-60.312" y="40">ibendum laoreet.</tspan></text>
      <text id="Thoughtful_Design" data-name="Thoughtful Design" transform="translate(319 2936)" fill="#333" font-size="20" font-family="Montserrat-SemiBold, Montserrat" font-weight="600"><tspan x="-96.67" y="0">Thoughtful Design</tspan></text>
      <g id="Group_74" data-name="Group 74">
        <g id="Ellipse_8" data-name="Ellipse 8" transform="translate(280 2832)" fill="none" stroke="#e27866" stroke-width="1">
          <circle cx="25" cy="25" r="25" stroke="none"/>
          <circle cx="25" cy="25" r="24.5" fill="none"/>
        </g>
        <path id="Path_79" data-name="Path 79" d="M4.263,15.918c-.382-.382-.183-.274-1.1-.52a3.169,3.169,0,0,1-1.117-.585L.051,19.7a.7.7,0,0,0,.678.967l2.314-.088,1.592,1.681a.7.7,0,0,0,1.161-.218l2.286-5.6a3.152,3.152,0,0,1-3.817-.518ZM16.809,19.7l-1.992-4.885A3.161,3.161,0,0,1,13.7,15.4c-.925.248-.722.14-1.1.52a3.152,3.152,0,0,1-3.818.518l2.286,5.6a.7.7,0,0,0,1.161.218l1.592-1.681,2.314.088A.7.7,0,0,0,16.809,19.7Zm-5.261-4.774c.671-.683.748-.624,1.7-.884a1.785,1.785,0,0,0,1.25-1.273,2.822,2.822,0,0,1,1.14-2.009A1.822,1.822,0,0,0,16.1,9.019a2.856,2.856,0,0,1,0-2.32,1.822,1.822,0,0,0-.458-1.738A2.823,2.823,0,0,1,14.5,2.952a1.785,1.785,0,0,0-1.25-1.273A2.753,2.753,0,0,1,11.278.519,1.747,1.747,0,0,0,9.57.053a2.718,2.718,0,0,1-2.279,0A1.746,1.746,0,0,0,5.583.519a2.751,2.751,0,0,1-1.974,1.16,1.785,1.785,0,0,0-1.25,1.273,2.822,2.822,0,0,1-1.14,2.009A1.821,1.821,0,0,0,.761,6.7a2.855,2.855,0,0,1,0,2.32,1.823,1.823,0,0,0,.458,1.739,2.822,2.822,0,0,1,1.14,2.009,1.785,1.785,0,0,0,1.25,1.273c.983.268,1.056.226,1.7.884a1.745,1.745,0,0,0,2.184.256,1.742,1.742,0,0,1,1.868,0A1.745,1.745,0,0,0,11.548,14.924ZM4.287,7.72A4.144,4.144,0,1,1,8.43,11.937,4.181,4.181,0,0,1,4.287,7.72Z" transform="translate(297.002 2846.008)" fill="#e27866"/>
      </g>
    </g>
  </g>
</svg>
