<svg xmlns="http://www.w3.org/2000/svg" width="286" height="194" viewBox="0 0 286 194">
  <g id="Group_77" data-name="Group 77" transform="translate(-175.516 -2832)">
    <text id="Lorem_ipsum_dolor_sit_amet_consectetur_adipiscing_elit._Aenean_euismod_ibendum_laoreet." data-name="Lorem ipsum dolor sit amet, consectetur
adipiscing  elit. Aenean euismod
ibendum laoreet." transform="translate(318.516 2982)" fill="#86878b" font-size="14" font-family="Montserrat-Regular, Montserrat"><tspan x="-142.681" y="0">Lorem ipsum dolor sit amet, consectetur</tspan><tspan x="-113.708" y="20" xml:space="preserve">adipiscing  elit. Aenean euismod</tspan><tspan x="-60.312" y="40">ibendum laoreet.</tspan></text>
    <text id="Thoughtful_Design" data-name="Thoughtful Design" transform="translate(319 2936)" fill="#333" font-size="20" font-family="Montserrat-SemiBold, Montserrat" font-weight="600"><tspan x="-96.67" y="0">Thoughtful Design</tspan></text>
    <g id="Group_74" data-name="Group 74">
      <g id="Ellipse_8" data-name="Ellipse 8" transform="translate(280 2832)" fill="none" stroke="#e27866" stroke-width="1">
        <circle cx="25" cy="25" r="25" stroke="none"/>
        <circle cx="25" cy="25" r="24.5" fill="none"/>
      </g>
      <path id="Path_79" data-name="Path 79" d="M4.263,15.918c-.382-.382-.183-.274-1.1-.52a3.169,3.169,0,0,1-1.117-.585L.051,19.7a.7.7,0,0,0,.678.967l2.314-.088,1.592,1.681a.7.7,0,0,0,1.161-.218l2.286-5.6a3.152,3.152,0,0,1-3.817-.518ZM16.809,19.7l-1.992-4.885A3.161,3.161,0,0,1,13.7,15.4c-.925.248-.722.14-1.1.52a3.152,3.152,0,0,1-3.818.518l2.286,5.6a.7.7,0,0,0,1.161.218l1.592-1.681,2.314.088A.7.7,0,0,0,16.809,19.7Zm-5.261-4.774c.671-.683.748-.624,1.7-.884a1.785,1.785,0,0,0,1.25-1.273,2.822,2.822,0,0,1,1.14-2.009A1.822,1.822,0,0,0,16.1,9.019a2.856,2.856,0,0,1,0-2.32,1.822,1.822,0,0,0-.458-1.738A2.823,2.823,0,0,1,14.5,2.952a1.785,1.785,0,0,0-1.25-1.273A2.753,2.753,0,0,1,11.278.519,1.747,1.747,0,0,0,9.57.053a2.718,2.718,0,0,1-2.279,0A1.746,1.746,0,0,0,5.583.519a2.751,2.751,0,0,1-1.974,1.16,1.785,1.785,0,0,0-1.25,1.273,2.822,2.822,0,0,1-1.14,2.009A1.821,1.821,0,0,0,.761,6.7a2.855,2.855,0,0,1,0,2.32,1.823,1.823,0,0,0,.458,1.739,2.822,2.822,0,0,1,1.14,2.009,1.785,1.785,0,0,0,1.25,1.273c.983.268,1.056.226,1.7.884a1.745,1.745,0,0,0,2.184.256,1.742,1.742,0,0,1,1.868,0A1.745,1.745,0,0,0,11.548,14.924ZM4.287,7.72A4.144,4.144,0,1,1,8.43,11.937,4.181,4.181,0,0,1,4.287,7.72Z" transform="translate(297.002 2846.008)" fill="#e27866"/>
    </g>
  </g>
</svg>
